HIERARCHY
ROOT mixamorig:Hips
{
	OFFSET 0.000000 201.639420 0.000000
	CHANNELS 6 Xposition Yposition Zposition Xrotation Yrotation Zrotation
	JOINT mixamorig:Spine
	{
		OFFSET 0.006200 19.524994 -2.481800
		CHANNELS 3 Xrotation Yrotation Zrotation
		JOINT mixamorig:Spine1
		{
			OFFSET -0.000900 22.835007 -2.825400
			CHANNELS 3 Xrotation Yrotation Zrotation
			JOINT mixamorig:Spine2
			{
				OFFSET -0.020600 26.552490 -3.193300
				CHANNELS 3 Xrotation Yrotation Zrotation
				JOINT mixamorig:Neck
				{
					OFFSET -0.060000 30.701813 1.352200
					CHANNELS 3 Xrotation Yrotation Zrotation
					JOINT mixamorig:Head
					{
						OFFSET -0.087200 22.547607 3.670900
						CHANNELS 3 Xrotation Yrotation Zrotation
						JOINT mixamorig:HeadTop_End
						{
							OFFSET -0.830600 40.355194 7.893500
							CHANNELS 3 Xrotation Yrotation Zrotation
							End Site
							{
								OFFSET 0.000000 30.592346 0.000000
							}
						}
						JOINT mixamorig:RightEye
						{
							OFFSET -6.302100 18.118591 16.197100
							CHANNELS 3 Xrotation Yrotation Zrotation
							End Site
							{
								OFFSET 0.000000 30.592346 0.000000
							}
						}
						JOINT mixamorig:LeftEye
						{
							OFFSET 6.741500 18.382690 16.401899
							CHANNELS 3 Xrotation Yrotation Zrotation
							End Site
							{
								OFFSET 0.000000 30.592346 0.000000
							}
						}
					}
				}
				JOINT mixamorig:LeftShoulder
				{
					OFFSET 11.924900 18.230499 1.425400
					CHANNELS 3 Xrotation Yrotation Zrotation
					JOINT mixamorig:LeftArm
					{
						OFFSET 25.435989 -0.697632 -5.229300
						CHANNELS 3 Xrotation Yrotation Zrotation
						JOINT mixamorig:LeftForeArm
						{
							OFFSET 54.684776 0.000000 0.000000
							CHANNELS 3 Xrotation Yrotation Zrotation
							JOINT mixamorig:LeftHand
							{
								OFFSET 55.098175 0.000000 0.000000
								CHANNELS 3 Xrotation Yrotation Zrotation
								JOINT mixamorig:LeftHandMiddle1
								{
									OFFSET 23.369751 0.000000 0.000000
									CHANNELS 3 Xrotation Yrotation Zrotation
									JOINT mixamorig:LeftHandMiddle2
									{
										OFFSET 6.378677 0.000000 0.000000
										CHANNELS 3 Xrotation Yrotation Zrotation
										JOINT mixamorig:LeftHandMiddle3
										{
											OFFSET 6.148331 0.000000 0.000000
											CHANNELS 3 Xrotation Yrotation Zrotation
											JOINT mixamorig:LeftHandMiddle4
											{
												OFFSET 6.582504 0.000000 0.000000
												CHANNELS 3 Xrotation Yrotation Zrotation
												End Site
												{
													OFFSET -1.168900 6.395691 1.028606
												}
											}
										}
									}
								}
								JOINT mixamorig:LeftHandThumb1
								{
									OFFSET 7.235672 -3.848206 5.434273
									CHANNELS 3 Xrotation Yrotation Zrotation
									JOINT mixamorig:LeftHandThumb2
									{
										OFFSET 6.568451 -3.792297 3.792300
										CHANNELS 3 Xrotation Yrotation Zrotation
										JOINT mixamorig:LeftHandThumb3
										{
											OFFSET 6.063080 -3.500519 3.500518
											CHANNELS 3 Xrotation Yrotation Zrotation
											JOINT mixamorig:LeftHandThumb4
											{
												OFFSET 4.793182 -2.767334 2.767349
												CHANNELS 3 Xrotation Yrotation Zrotation
												End Site
												{
													OFFSET 0.101639 6.054260 1.275483
												}
											}
										}
									}
								}
								JOINT mixamorig:LeftHandIndex1
								{
									OFFSET 23.101074 -0.309540 4.992809
									CHANNELS 3 Xrotation Yrotation Zrotation
									JOINT mixamorig:LeftHandIndex2
									{
										OFFSET 6.226883 0.000000 0.000000
										CHANNELS 3 Xrotation Yrotation Zrotation
										JOINT mixamorig:LeftHandIndex3
										{
											OFFSET 6.094330 0.000000 0.000000
											CHANNELS 3 Xrotation Yrotation Zrotation
											JOINT mixamorig:LeftHandIndex4
											{
												OFFSET 5.482605 0.000000 0.000000
												CHANNELS 3 Xrotation Yrotation Zrotation
												End Site
												{
													OFFSET -1.427902 5.233032 0.797164
												}
											}
										}
									}
								}
								JOINT mixamorig:LeftHandRing1
								{
									OFFSET 22.299240 0.021149 -3.964172
									CHANNELS 3 Xrotation Yrotation Zrotation
									JOINT mixamorig:LeftHandRing2
									{
										OFFSET 6.321869 0.000000 0.000000
										CHANNELS 3 Xrotation Yrotation Zrotation
										JOINT mixamorig:LeftHandRing3
										{
											OFFSET 5.899796 0.000000 0.000000
											CHANNELS 3 Xrotation Yrotation Zrotation
											JOINT mixamorig:LeftHandRing4
											{
												OFFSET 6.517899 0.000000 0.000000
												CHANNELS 3 Xrotation Yrotation Zrotation
												End Site
												{
													OFFSET -1.637299 6.232208 0.980890
												}
											}
										}
									}
								}
								JOINT mixamorig:LeftHandPinky1
								{
									OFFSET 20.463791 -0.302338 -8.562233
									CHANNELS 3 Xrotation Yrotation Zrotation
									JOINT mixamorig:LeftHandPinky2
									{
										OFFSET 6.908646 0.000000 0.000000
										CHANNELS 3 Xrotation Yrotation Zrotation
										JOINT mixamorig:LeftHandPinky3
										{
											OFFSET 4.622849 0.000000 0.000000
											CHANNELS 3 Xrotation Yrotation Zrotation
											JOINT mixamorig:LeftHandPinky4
											{
												OFFSET 5.216080 0.000000 0.000000
												CHANNELS 3 Xrotation Yrotation Zrotation
												End Site
												{
													OFFSET -0.606308 5.116241 0.814926
												}
											}
										}
									}
								}
							}
						}
					}
				}
				JOINT mixamorig:RightShoulder
				{
					OFFSET -12.001300 18.284088 1.348900
					CHANNELS 3 Xrotation Yrotation Zrotation
					JOINT mixamorig:RightArm
					{
						OFFSET -25.308500 -0.751312 -5.164599
						CHANNELS 3 Xrotation Yrotation Zrotation
						JOINT mixamorig:RightForeArm
						{
							OFFSET -54.684429 0.000000 0.000000
							CHANNELS 3 Xrotation Yrotation Zrotation
							JOINT mixamorig:RightHand
							{
								OFFSET -55.150291 0.000000 0.000000
								CHANNELS 3 Xrotation Yrotation Zrotation
								JOINT mixamorig:RightHandMiddle1
								{
									OFFSET -23.317566 0.000000 0.000000
									CHANNELS 3 Xrotation Yrotation Zrotation
									JOINT mixamorig:RightHandMiddle2
									{
										OFFSET -6.378403 0.000000 0.000000
										CHANNELS 3 Xrotation Yrotation Zrotation
										JOINT mixamorig:RightHandMiddle3
										{
											OFFSET -6.148193 0.000000 0.000000
											CHANNELS 3 Xrotation Yrotation Zrotation
											JOINT mixamorig:RightHandMiddle4
											{
												OFFSET -6.583389 0.000000 0.000000
												CHANNELS 3 Xrotation Yrotation Zrotation
												End Site
												{
													OFFSET 1.171692 6.395905 1.029786
												}
											}
										}
									}
								}
								JOINT mixamorig:RightHandThumb1
								{
									OFFSET -7.190521 -3.860474 5.435846
									CHANNELS 3 Xrotation Yrotation Zrotation
									JOINT mixamorig:RightHandThumb2
									{
										OFFSET -6.567429 -3.791718 3.791708
										CHANNELS 3 Xrotation Yrotation Zrotation
										JOINT mixamorig:RightHandThumb3
										{
											OFFSET -6.062469 -3.500153 3.500166
											CHANNELS 3 Xrotation Yrotation Zrotation
											JOINT mixamorig:RightHandThumb4
											{
												OFFSET -4.792618 -2.767029 2.767022
												CHANNELS 3 Xrotation Yrotation Zrotation
												End Site
												{
													OFFSET -0.100327 6.053253 1.276754
												}
											}
										}
									}
								}
								JOINT mixamorig:RightHandIndex1
								{
									OFFSET -23.048981 -0.310791 4.992554
									CHANNELS 3 Xrotation Yrotation Zrotation
									JOINT mixamorig:RightHandIndex2
									{
										OFFSET -6.227539 0.000000 0.000000
										CHANNELS 3 Xrotation Yrotation Zrotation
										JOINT mixamorig:RightHandIndex3
										{
											OFFSET -6.095047 0.000000 0.000000
											CHANNELS 3 Xrotation Yrotation Zrotation
											JOINT mixamorig:RightHandIndex4
											{
												OFFSET -5.484772 0.000000 0.000000
												CHANNELS 3 Xrotation Yrotation Zrotation
												End Site
												{
													OFFSET 1.420593 5.237305 0.797056
												}
											}
										}
									}
								}
								JOINT mixamorig:RightHandRing1
								{
									OFFSET -22.246323 0.020569 -3.963762
									CHANNELS 3 Xrotation Yrotation Zrotation
									JOINT mixamorig:RightHandRing2
									{
										OFFSET -6.322128 0.000000 0.000000
										CHANNELS 3 Xrotation Yrotation Zrotation
										JOINT mixamorig:RightHandRing3
										{
											OFFSET -5.900024 0.000000 0.000000
											CHANNELS 3 Xrotation Yrotation Zrotation
											JOINT mixamorig:RightHandRing4
											{
												OFFSET -6.518356 0.000000 0.000000
												CHANNELS 3 Xrotation Yrotation Zrotation
												End Site
												{
													OFFSET 1.636398 6.232697 0.982186
												}
											}
										}
									}
								}
								JOINT mixamorig:RightHandPinky1
								{
									OFFSET -20.411011 -0.303314 -8.561701
									CHANNELS 3 Xrotation Yrotation Zrotation
									JOINT mixamorig:RightHandPinky2
									{
										OFFSET -6.907349 0.000000 0.000000
										CHANNELS 3 Xrotation Yrotation Zrotation
										JOINT mixamorig:RightHandPinky3
										{
											OFFSET -4.623840 0.000000 0.000000
											CHANNELS 3 Xrotation Yrotation Zrotation
											JOINT mixamorig:RightHandPinky4
											{
												OFFSET -5.218353 0.000000 0.000000
												CHANNELS 3 Xrotation Yrotation Zrotation
												End Site
												{
													OFFSET 0.602097 5.118835 0.816273
												}
											}
										}
									}
								}
							}
						}
					}
				}
			}
		}
	}
	JOINT mixamorig:LeftUpLeg
	{
		OFFSET 18.168400 -13.561905 -0.039000
		CHANNELS 3 Xrotation Yrotation Zrotation
		JOINT mixamorig:LeftLeg
		{
			OFFSET 0.577358 -80.825211 -3.695000
			CHANNELS 3 Xrotation Yrotation Zrotation
			JOINT mixamorig:LeftFoot
			{
				OFFSET -0.577356 -83.370262 -6.520700
				CHANNELS 3 Xrotation Yrotation Zrotation
				JOINT mixamorig:LeftToeBase
				{
					OFFSET 0.750401 -20.798306 25.135401
					CHANNELS 3 Xrotation Yrotation Zrotation
					JOINT mixamorig:LeftToe_End
					{
						OFFSET -0.000500 0.001200 19.917799
						CHANNELS 3 Xrotation Yrotation Zrotation
						End Site
						{
							OFFSET 0.000000 19.917805 0.000000
						}
					}
				}
			}
		}
	}
	JOINT mixamorig:RightUpLeg
	{
		OFFSET -18.162500 -13.585098 -0.041000
		CHANNELS 3 Xrotation Yrotation Zrotation
		JOINT mixamorig:RightLeg
		{
			OFFSET -0.595024 -80.945297 -3.631900
			CHANNELS 3 Xrotation Yrotation Zrotation
			JOINT mixamorig:RightFoot
			{
				OFFSET 0.595024 -83.218193 -6.561200
				CHANNELS 3 Xrotation Yrotation Zrotation
				JOINT mixamorig:RightToeBase
				{
					OFFSET -0.753601 -20.807106 25.115000
					CHANNELS 3 Xrotation Yrotation Zrotation
					JOINT mixamorig:RightToe_End
					{
						OFFSET 0.000299 0.001700 19.918200
						CHANNELS 3 Xrotation Yrotation Zrotation
						End Site
						{
							OFFSET 0.000000 19.918203 0.000000
						}
					}
				}
			}
		}
	}
}
MOTION
Frames: 4
Frame Time: 0.033333
-3.658413 189.104919 50.085167 -51.048550 80.382584 41.248192 20.542264 10.052891 5.050782 -1.733853 0.823385 3.224063 -1.779761 1.013834 3.693739 0.309452 -11.928633 -6.366677 5.427342 -67.922352 11.872715 0.000000 -0.000000 0.000001 0.000000 -0.000000 0.000001 0.000000 -0.000000 0.000001 0.045165 3.732524 -1.528396 -71.767789 10.751527 0.318051 -0.000364 -84.789559 -0.000363 -38.968924 -20.405696 -16.171883 -1.850238 0.002655 -38.209526 0.702549 3.034942 -26.061645 0.069343 0.976731 -8.121527 -0.000000 -0.000001 0.000000 -9.173786 -11.571917 0.007676 1.225740 -0.219466 -1.041724 -0.320888 2.563759 3.153075 0.000001 -0.000001 0.000001 -8.910883 -5.998191 -46.264676 0.185449 1.590399 -13.301158 0.039284 0.735982 -6.110581 -0.000000 -0.000001 -0.000001 0.416855 3.032780 -40.512130 0.823367 3.270081 -28.258238 0.068429 0.970289 -8.067637 -0.000000 0.000002 0.000000 2.312082 5.178449 -52.837893 0.299819 -2.043033 -17.429521 0.033627 0.681097 -5.653194 0.000000 -0.000001 0.000003 0.949531 1.275640 29.419886 -36.166924 3.741398 37.580572 0.000002 22.358633 0.000006 -89.539156 30.569458 -7.768157 -0.419668 -1.402554 32.938519 0.420595 -2.385926 19.992536 1.819806 -0.499796 5.551548 -0.000005 0.000000 0.000002 1.164899 -10.153940 -11.423138 2.047493 0.403865 1.629776 -3.513600 4.101706 -2.685448 0.000004 -0.000001 -0.000001 -1.873638 6.803054 14.345632 0.563780 -2.747332 23.188905 0.034104 -0.689138 5.664364 -0.000000 -0.000001 -0.000001 4.976377 -7.108096 54.760430 0.418362 -2.379738 19.938611 2.089953 -0.169316 1.991216 0.000001 0.000000 0.000001 13.478434 -8.610196 77.145921 1.889933 -4.769777 43.211028 0.033729 0.685426 -5.633689 0.000001 -0.000002 -0.000001 -31.286300 9.480160 26.127845 46.813748 -0.532789 -6.791158 -14.150187 -4.448309 -1.834783 -3.550340 -0.000033 0.000003 0.000000 0.000000 0.000000 -13.677158 -7.338961 -2.737396 39.347204 -10.145709 2.244063 -16.474191 -17.827702 15.051432 11.160496 -0.000017 0.000003 -0.000000 0.000000 0.000000 
-3.906189 188.858063 51.940193 -51.556754 80.286579 41.759394 20.467832 10.513288 6.511251 -1.623660 0.762939 3.394038 -1.687209 0.991093 3.978837 1.083976 -12.015933 -6.284273 9.559064 -68.511497 15.143096 -0.000000 -0.000001 -0.000001 -0.000000 -0.000001 -0.000001 -0.000000 -0.000001 -0.000001 -0.006336 2.993050 0.355504 -61.263949 6.409682 3.023442 -0.000140 -77.488687 -0.000130 -29.739911 -20.977949 -15.258772 -1.887005 0.044114 -38.788153 0.711934 3.054040 -26.238363 0.069347 0.976752 -8.121660 -0.000000 0.000000 -0.000002 -9.424127 -13.561604 -2.937175 1.221405 -0.217114 -1.043921 -1.012208 1.297275 3.331454 0.000001 0.000002 -0.000005 -9.302268 -5.819738 -47.752950 0.209218 1.687724 -14.131981 0.038853 0.731926 -6.076805 -0.000000 -0.000000 -0.000002 0.399591 3.002555 -40.319706 0.770107 3.169169 -27.310038 0.067952 0.966948 -8.039590 -0.000001 -0.000001 0.000001 2.310996 5.167270 -51.831690 0.234593 -2.263382 -15.527822 0.034136 0.686230 -5.695942 0.000000 -0.000001 -0.000002 0.925106 1.297169 27.758512 -30.487666 10.225309 31.529605 -0.000008 20.845087 0.000009 -93.975596 27.196317 -15.897105 -0.070218 -1.740127 29.982632 0.176579 -1.560134 12.914126 0.948310 -0.238065 2.264025 -0.000002 0.000000 0.000002 -3.769800 -9.273480 -14.003186 2.047959 0.402126 1.637254 -3.364309 3.805204 -2.747857 -0.000002 0.000002 0.000001 -1.101086 6.070881 9.875612 0.150986 -1.443951 11.937169 0.004686 -0.255559 2.097571 0.000001 -0.000002 0.000000 5.100515 -7.302679 52.942733 0.293550 -2.002806 16.675360 1.408300 -0.060461 0.623351 0.000000 0.000001 -0.000003 13.402283 -8.810007 75.683578 1.865862 -4.744093 42.920581 0.031022 0.657523 -5.403650 0.000001 -0.000000 -0.000000 -30.984887 8.777858 25.318295 46.262148 -1.448557 -5.136902 -13.051269 -3.320216 -1.502939 -3.538224 0.000045 0.000006 -0.000001 0.000000 0.000000 -13.782688 -7.109297 -1.919669 39.817131 -10.139464 1.275527 -15.529099 -17.361965 17.149900 9.472099 0.020431 -1.335495 0.000000 0.000002 -0.000000 
-4.016203 188.562057 52.578110 -46.513745 79.294357 36.553704 20.505512 10.734143 7.412908 -1.427578 0.751998 3.430441 -1.490026 0.989292 4.026851 1.762852 -12.021773 -6.413966 12.221934 -68.756263 16.781068 -0.000000 0.000001 -0.000000 -0.000000 0.000001 -0.000000 -0.000000 0.000001 -0.000000 0.032238 2.242065 1.405382 -53.496056 3.767902 7.302648 0.000021 -70.954286 0.000010 -26.141579 -22.912698 -13.622603 -1.900724 0.051655 -38.950878 0.695767 3.021057 -25.933264 0.068825 0.973099 -8.091104 -0.000001 0.000002 -0.000000 -9.549688 -15.106533 -5.744061 1.211578 -0.211724 -1.049112 -1.613939 0.163875 3.478073 0.000000 -0.000001 0.000001 -9.454892 -5.706047 -48.433691 0.214858 1.709965 -14.322275 0.038668 0.730244 -6.062703 -0.000000 0.000001 -0.000001 0.377178 2.959020 -39.993865 0.709696 3.049501 -26.196316 0.067439 0.963280 -8.008899 0.000001 -0.000001 -0.000001 2.250174 5.110990 -50.943089 0.178602 -2.477998 -13.692218 0.034653 0.691390 -5.738960 -0.000001 0.000001 0.000001 0.939386 0.987162 25.938099 -29.270622 12.643921 26.130396 -0.000004 20.557700 0.000004 -94.180406 26.152632 -21.171457 0.098704 -1.785840 25.562885 0.062410 -0.931460 7.666706 0.342850 0.014802 -0.127622 -0.000002 0.000002 0.000000 -8.455499 -8.006262 -16.485920 2.049913 0.396551 1.662214 -3.283647 3.599952 -2.836707 0.000002 0.000003 0.000001 -0.265497 5.705660 2.962954 0.017878 -0.499498 4.102277 0.000228 0.057232 -0.469644 -0.000000 -0.000001 -0.000001 4.974246 -7.339678 50.890531 0.219552 -1.736852 14.407756 0.941021 0.037763 -0.358922 0.000001 0.000002 0.000001 12.917686 -8.900821 74.196727 1.880284 -4.759522 43.094870 0.029378 0.639837 -5.257835 -0.000005 0.000001 -0.000002 -31.204395 9.211283 25.250134 46.179531 -1.900023 -3.407118 -10.808797 -2.549879 -0.989005 -3.997773 -0.000011 0.000005 0.000000 0.000001 0.000000 -14.212859 -6.216508 -1.251914 40.461088 -10.049304 1.005106 -14.986439 -16.578029 18.693640 7.945706 0.119705 -3.205148 0.000000 -0.000001 0.000000 
-3.895796 188.235397 52.116749 -38.698120 77.151187 28.366964 20.448838 10.295842 7.661115 -1.111574 0.750315 3.364965 -1.162772 0.964559 3.957276 1.920795 -11.827985 -6.839876 11.904051 -68.197793 15.749409 -0.000000 0.000001 -0.000001 -0.000000 0.000001 -0.000001 -0.000000 0.000001 -0.000001 0.042197 2.061444 1.822652 -49.393811 1.823061 9.488588 0.000003 -65.345772 0.000005 -29.534844 -25.653426 -11.009245 -1.872596 -0.024766 -38.220096 0.636613 2.896420 -24.787229 0.067440 0.963303 -8.009082 -0.000000 0.000000 0.000003 -8.955543 -15.409310 -7.621284 1.207373 -0.208029 -1.051273 -1.845745 -0.282232 3.518506 0.000000 0.000002 -0.000005 -9.138997 -5.824919 -47.315336 0.185606 1.591070 -13.306911 0.039008 0.733421 -6.089186 -0.000000 -0.000002 -0.000003 0.346263 2.893917 -39.464857 0.648958 2.922975 -25.030453 0.066953 0.959859 -7.980256 -0.000000 -0.000001 0.000003 2.097616 4.982024 -50.493837 0.143546 -2.629080 -12.408628 0.035059 0.695396 -5.772350 -0.000002 -0.000000 0.000001 0.951713 0.482814 23.520173 -33.509714 12.361462 23.654183 -0.000013 21.133223 -0.000000 -90.715752 27.522737 -22.441498 0.020625 -1.255440 19.523416 0.030512 -0.652017 5.358255 0.113808 0.191384 -1.596362 0.000003 0.000002 -0.000002 -11.455151 -6.663918 -19.177756 2.048413 0.393910 1.670292 -3.332937 3.627180 -2.932125 0.000000 0.000003 0.000001 0.657593 5.983822 -6.422514 0.003285 -0.214106 1.757200 0.005564 0.278820 -2.288428 0.000002 0.000003 -0.000002 4.395479 -7.015793 48.419805 0.200900 -1.662685 13.779598 0.632051 0.106294 -0.960152 0.000000 0.000003 -0.000001 11.723163 -8.764354 72.611290 1.959401 -4.842400 44.040093 0.029921 0.645697 -5.306090 0.000000 -0.000000 -0.000000 -31.329145 9.851576 25.817321 46.941127 -1.734144 -2.081473 -10.624326 -0.884760 -1.133785 -4.158766 -0.000022 -0.000003 0.000000 0.000000 -0.000000 -14.838897 -5.083258 -0.603398 41.081628 -10.087343 0.993568 -14.673982 -14.978282 19.547573 7.096015 0.212262 -4.247558 -0.000000 -0.000000 0.000000 
